SEPARATE GREEK SUBTITLES

Movie Trailer, Sample, Snapsots, English and Greek Info.txt Included

------------------------------------------------------------------------------

Convoy (1978) - Original DvDrip 
http://www.imdb.com/title/tt0077369/

A mile-long convoy of protesting truckers speeds along the Arizona highway toward the Mexican border. The tense action builds to an incredible climax in one of the most destructive auto crash scenes ever filmed.

Starring: Kris Kristofferson, Ali MacGraw, Ernest Borgnine,

Director: Sam Peckinpah

---------------------------------------------------------------------------------

General

Format                           : AVI
Format/Info                      : Audio Video Interleave
File size                        : 1.37 GiB
Duration                         : 1h 46mn
Overall bit rate                 : 1 843 Kbps
Writing application              : VirtualDubMod 1.5.4.1 (build 2178/release)
Writing library                  : VirtualDubMod build 2178/release

Video
ID                               : 0
Format                           : MPEG-4 Visual
Format profile                   : AdvancedSimple@L5
Format settings, BVOP            : Yes
Format settings, QPel            : No
Format settings, GMC             : No warppoints
Format settings, Matrix          : Custom
Codec ID                         : XVID
Codec ID/Hint                    : XviD
Duration                         : 1h 46mn
Bit rate                         : 1 389 Kbps
Width                            : 784 pixels
Height                           : 336 pixels
Display aspect ratio             : 2.35:1
Frame rate                       : 25.000 fps
Resolution                       : 24 bits
Colorimetry                      : 4:2:0
Scan type                        : Progressive
Bits/(Pixel*Frame)               : 0.211
Stream size                      : 1.03 GiB (75%)
Writing library                  : XviD 1.2.1 (UTC 2008-12-04)

Audio
ID                               : 1
Format                           : AC-3
Format/Info                      : Audio Coding 3
Codec ID                         : 2000
Duration                         : 1h 46mn
Bit rate mode                    : Constant
Bit rate                         : 448 Kbps
Channel(s)                       : 6 channels
Channel positions                : Front: L C R, Surround: L R, LFE
Sampling rate                    : 48.0 KHz
Stream size                      : 340 MiB (24%)
Alignment                        : Split accross interleaves
Interleave, duration             : 96 ms (2.40 video frames)
Interleave, preload duration     : 96 ms
Language                         : English


!